# xmcd
#
# Track frame offsets:
#	150
#	13990
#	33569
#	50617
#	67042
#	81597
#	99190
#	112952
#	132403
#	149452
#	165655
#	180111
#
# Disc length: 2634 seconds
#
# Revision: 1
# Processed by: cddbd v1.5.2PL0 Copyright (c) Steve Scherf et al.
# Submitted via: audiograbber 1.83.01
#
DISCID=a40a480c
DTITLE=ChartBuster - CB20441
DYEAR=1900
DGENRE=KARAOKE
TTITLE0=Collin Raye - My Kind Of Girl (Vocal Version)
TTITLE1=Collin Raye - One Boy, One Girl (Vocal Version)
TTITLE2=Collin Raye - I Can Still Feel you (Vocal Version)
TTITLE3=Collin Raye - I Think About You (Vocal Version)
TTITLE4=Collin Raye - That's My Story (Vocal Version)
TTITLE5=Collin Raye - Love Remains (Vocal Version)
TTITLE6=Collin Raye - My Kind Of Girl
TTITLE7=Collin Raye - One Boy, One Girl
TTITLE8=Collin Raye - I Can Still Feel you
TTITLE9=Collin Raye - I Think About You
TTITLE10=Collin Raye - That's My Story
TTITLE11=Collin Raye - Love Remains
EXTD=
EXTT0=
EXTT1=
EXTT2=
EXTT3=
EXTT4=
EXTT5=
EXTT6=
EXTT7=
EXTT8=
EXTT9=
EXTT10=
EXTT11=
PLAYORDER=
